<svg width="47" height="24" viewBox="0 0 47 24" fill="none" xmlns="http://www.w3.org/2000/svg">
<g clip-path="url(#clip0_15556_1691)">
<path d="M20.4411 19.0814H17.4699L16.8735 20.1126L18.4759 22.8826L16.5268 24L14.9208 21.2245H3.84415L2.23816 24L0.289062 22.8826L1.90762 20.0838L0.619601 17.7862L2.58666 16.685L3.8675 18.9718H14.9298L15.7148 17.6156V15.8425H17.9711V16.8269H20.4375V19.0796L20.4411 19.0814Z" fill="#FF7900"/>
<path d="M16.8501 13.1982L16.516 12.8659L16.8501 12.5317L17.1825 12.8659L16.8501 13.1982Z" fill="#FF7900"/>
<path d="M17.9802 13.4982V14.8581H15.7167V13.4982L16.3796 13.8952L16.8503 13.2126L17.3191 13.8952L17.9802 13.4982Z" fill="#FF7900"/>
<path d="M2.71976 5.28682C2.71976 4.46946 2.99281 3.78862 3.53892 3.24611C4.08323 2.70539 4.76586 2.43413 5.58502 2.43413C5.88861 2.43413 6.18682 2.47904 6.48502 2.57066C6.78143 2.66048 7.02035 2.76288 7.19999 2.87785C7.38143 2.99282 7.55568 3.12395 7.72454 3.26766C7.8916 3.41497 7.99939 3.51736 8.0443 3.57485C8.09101 3.63413 8.12693 3.68263 8.15568 3.71856L9.80657 2.00479L9.6449 1.8018C9.5425 1.66168 9.37364 1.49461 9.13831 1.2988C8.90298 1.10299 8.62813 0.908982 8.31376 0.713174C7.99939 0.517365 7.60059 0.348503 7.11556 0.210179C6.63233 0.0700596 6.12035 0 5.58322 0C4.02754 0 2.70718 0.519161 1.62395 1.55748C0.540717 2.5976 0 3.84072 0 5.28682C0 6.73293 0.540717 7.97784 1.62395 9.01617C2.70718 10.0563 4.02934 10.5754 5.58322 10.5754C6.12394 10.5754 6.6449 10.5036 7.1461 10.3635C7.64729 10.2198 8.04969 10.0617 8.35508 9.88383C8.66047 9.70778 8.9443 9.50299 9.20657 9.27485C9.46885 9.04491 9.63771 8.88503 9.70957 8.79341C9.78142 8.7 9.83711 8.62814 9.87484 8.57245L8.30298 6.85868L8.00298 7.17844C7.80358 7.3976 7.47664 7.61497 7.02574 7.82874C6.57304 8.04251 6.0934 8.1503 5.58502 8.1503C4.76406 8.1503 4.08323 7.87545 3.53892 7.33293C2.99281 6.78862 2.71976 6.10599 2.71976 5.28682ZM13.067 5.28682C13.067 4.46946 13.3347 3.78862 13.87 3.24611C14.4072 2.70539 15.07 2.43413 15.8623 2.43413C16.6545 2.43413 17.3173 2.70539 17.8527 3.24611C18.3844 3.78862 18.6521 4.46946 18.6521 5.28682C18.6521 6.10419 18.3844 6.78682 17.8527 7.33293C17.3173 7.87545 16.6545 8.1503 15.8623 8.1503C15.07 8.1503 14.4072 7.87545 13.87 7.33293C13.3329 6.78862 13.067 6.10599 13.067 5.28682ZM21.4401 5.28682C21.4401 3.84072 20.8994 2.5994 19.8161 1.55748C18.7329 0.519161 17.4143 0 15.8605 0C14.3066 0 12.9862 0.519161 11.903 1.55748C10.8197 2.5976 10.279 3.84072 10.279 5.28682C10.279 6.73293 10.8197 7.97784 11.903 9.01617C12.9862 10.0563 14.3048 10.5754 15.8605 10.5754C17.4161 10.5754 18.7329 10.0563 19.8161 9.01617C20.8994 7.97784 21.4401 6.73473 21.4401 5.28682ZM22.7012 10.2898H25.4209V7.14431H26.8545L28.5718 10.2898H31.4317L29.3568 6.6485L29.5455 6.54431C29.6568 6.48682 29.7952 6.38443 29.9622 6.23174C30.1311 6.08084 30.2982 5.8976 30.4652 5.68203C30.6341 5.46467 30.7778 5.18443 30.8964 4.83772C31.0131 4.49281 31.0724 4.11916 31.0724 3.71856C31.0724 2.74671 30.7293 1.93293 30.0413 1.27365C29.3532 0.616167 28.482 0.287423 27.4239 0.287423H22.6976V10.2916L22.7012 10.2898ZM28.358 3.71677C28.358 4.0024 28.2574 4.23952 28.058 4.43174C27.8568 4.62216 27.5964 4.71736 27.2802 4.71736H25.4227V2.72156H27.2802C27.5964 2.72156 27.8568 2.81677 28.058 3.00539C28.2592 3.19401 28.358 3.43114 28.358 3.71856V3.71677ZM37.5574 10.5772C38.0946 10.5772 38.6119 10.5054 39.1149 10.3653C39.6179 10.2216 40.0311 10.0635 40.3526 9.88563C40.6742 9.70958 40.976 9.50479 41.2544 9.27665C41.5329 9.04671 41.7179 8.88682 41.8059 8.79521C41.8939 8.70179 41.9586 8.62994 41.9945 8.57425V4.71736H37.6993V6.43473H39.2712V7.50898L39.1041 7.66347C38.9874 7.77844 38.7862 7.88982 38.5023 7.99401C38.2167 8.1 37.9041 8.15209 37.5574 8.15209C36.7365 8.15209 36.0538 7.87725 35.5095 7.33473C34.9634 6.79042 34.6922 6.10778 34.6922 5.28862C34.6922 4.46946 34.9634 3.79042 35.5095 3.2479C36.0538 2.70719 36.7365 2.43593 37.5574 2.43593C37.861 2.43593 38.1592 2.48084 38.4574 2.57245C38.7538 2.66227 38.991 2.76467 39.1724 2.87964C39.3538 2.99461 39.5281 3.12575 39.6969 3.26946C39.864 3.41677 39.9718 3.51916 40.0167 3.57665C40.0652 3.63593 40.1011 3.68443 40.1281 3.72036L41.779 2.00659L41.6173 1.80359C41.5149 1.66347 41.346 1.49641 41.1107 1.3006C40.8754 1.10479 40.6005 0.910778 40.2844 0.714969C39.97 0.519161 39.5712 0.350298 39.088 0.211975C38.6029 0.071855 38.0928 0.00179542 37.5556 0.00179542C35.9999 0.00179542 34.6796 0.520957 33.5964 1.55928C32.5131 2.5994 31.9724 3.84251 31.9724 5.28862C31.9724 6.73473 32.5131 7.97964 33.5964 9.01796C34.6796 10.0581 36.0017 10.5772 37.5556 10.5772H37.5574ZM43.676 10.2898H46.3957V0.285628H43.676V10.2898Z" fill="#FCF7F5"/>
<path d="M26.736 23.6353C27.6737 23.6353 28.439 23.3784 29.0389 22.8647C29.6372 22.3509 29.9389 21.7509 29.9389 21.0647C29.9389 20.77 29.8815 20.4988 29.7701 20.2491C29.6569 19.9994 29.5312 19.8036 29.3928 19.6617C29.2527 19.518 29.0928 19.3904 28.9132 19.279C28.7336 19.1659 28.6078 19.0958 28.536 19.0635C28.4659 19.0329 28.4084 19.0096 28.3689 18.9916L28.4839 18.9305C28.5665 18.8892 28.6617 18.8209 28.7695 18.7257C28.8791 18.6287 28.9869 18.5174 29.0982 18.3844C29.2096 18.2551 29.303 18.079 29.3803 17.8617C29.4575 17.6425 29.497 17.4126 29.497 17.1718C29.497 16.5467 29.2204 16.006 28.6689 15.5443C28.1156 15.0826 27.3899 14.8527 26.4845 14.8527H22.527V23.6317H26.736V23.6353ZM39.1078 14.8563V16.9922H41.5545V23.6353H43.9419V16.9922H46.3958V14.8563H39.1078ZM33.3737 21.6269V20.1269H36.7653V18.2425H33.3737V16.8647H37.7731V14.8563H30.988V23.6353H37.8952V21.6269H33.3737ZM24.9144 21.7563V19.9976H26.5455C26.824 19.9976 27.0521 20.082 27.2282 20.2491C27.4042 20.4162 27.4922 20.6263 27.4922 20.876C27.4922 21.1257 27.4042 21.3359 27.2282 21.503C27.0521 21.6718 26.824 21.7563 26.5455 21.7563H24.9144ZM26.233 16.7407C26.4827 16.7407 26.6803 16.809 26.8276 16.9455C26.9731 17.0838 27.0485 17.2653 27.0485 17.4916C27.0485 17.718 26.9731 17.8994 26.8276 18.0359C26.6803 18.1724 26.4827 18.2407 26.233 18.2407H24.9144V16.7407H26.233Z" fill="#FCF7F5"/>
</g>
<defs>
<clipPath id="clip0_15556_1691">
<rect width="47" height="24" fill="white"/>
</clipPath>
</defs>
</svg>
